<svg xmlns="http://www.w3.org/2000/svg" viewBox="0 0 600 800" width="600" height="800" role="img" aria-label="Schicgirl — The Studio · Type 4 Routine Planner">
  <defs>
    <linearGradient id="bg" x1="0" y1="0" x2="1" y2="1">
      <stop offset="0" stop-color="#fdf6ee"/><stop offset="0.55" stop-color="#f6e7cf"/><stop offset="1" stop-color="#eccf99"/>
    </linearGradient>
    <linearGradient id="gold" x1="0" y1="0" x2="1" y2="1">
      <stop offset="0" stop-color="#c9934a"/><stop offset="1" stop-color="#a06d28"/>
    </linearGradient>
    <radialGradient id="glow" cx="0.5" cy="0.32" r="0.7">
      <stop offset="0" stop-color="#ffffff" stop-opacity="0.55"/><stop offset="1" stop-color="#ffffff" stop-opacity="0"/>
    </radialGradient>
  </defs>
  <rect width="600" height="800" fill="url(#bg)"/>
  <rect width="600" height="800" fill="url(#glow)"/>
  <g fill="none" stroke="#c9934a" stroke-opacity="0.22" stroke-width="6" stroke-linecap="round">
    <path d="M70 120 q40 -34 80 0 q40 34 80 0"/><path d="M380 700 q40 -34 80 0 q40 34 80 0"/>
  </g>
  <rect x="34" y="34" width="532" height="732" rx="26" fill="none" stroke="#c9934a" stroke-opacity="0.45" stroke-width="2"/>
  <text x="300" y="108" text-anchor="middle" font-family="Jost, Helvetica, Arial, sans-serif" font-size="22" letter-spacing="9" font-weight="600" fill="#a06d28">SCHICGIRL</text>
  <line x1="240" y1="126" x2="360" y2="126" stroke="#c9934a" stroke-opacity="0.5" stroke-width="1.5"/>
  <g transform="translate(300 172)">
    <rect x="-86" y="-19" width="172" height="38" rx="19" fill="#fff" fill-opacity="0.7" stroke="#c9934a" stroke-opacity="0.4"/>
    <text x="0" y="5" text-anchor="middle" font-family="Jost, Helvetica, Arial, sans-serif" font-size="13" letter-spacing="3" font-weight="700" fill="#a06d28">NEW</text>
  </g>
  <text x="300" y="290" text-anchor="middle" font-family="'Cormorant Garamond', Georgia, serif" font-size="92" font-weight="600" font-style="italic" fill="#2d1a0e">The Studio</text>
  <text x="300" y="340" text-anchor="middle" font-family="Jost, Helvetica, Arial, sans-serif" font-size="26" letter-spacing="6" font-weight="600" fill="#a06d28">ROUTINE PLANNER</text>
  <text x="300" y="378" text-anchor="middle" font-family="Jost, Helvetica, Arial, sans-serif" font-size="16" letter-spacing="5" font-weight="500" fill="#5a3a22">TYPE 4 · 4A · 4B · 4C</text>
  <g transform="translate(196 430)">
    <rect x="0" y="0" width="208" height="180" rx="16" fill="#fffaf3" stroke="#c9934a" stroke-opacity="0.5" stroke-width="2"/>
    <rect x="0" y="0" width="208" height="40" rx="16" fill="url(#gold)"/><rect x="0" y="24" width="208" height="16" fill="url(#gold)"/>
    <circle cx="40" cy="-4" r="6" fill="#a06d28"/><circle cx="168" cy="-4" r="6" fill="#a06d28"/>
    <g fill="#e8c07e">
      <rect x="22" y="60" width="26" height="22" rx="5"/><rect x="60" y="60" width="26" height="22" rx="5"/><rect x="98" y="60" width="26" height="22" rx="5"/><rect x="136" y="60" width="26" height="22" rx="5" fill="#c9934a"/><rect x="174" y="60" width="14" height="22" rx="5"/>
      <rect x="22" y="92" width="26" height="22" rx="5"/><rect x="60" y="92" width="26" height="22" rx="5" fill="#c9934a"/><rect x="98" y="92" width="26" height="22" rx="5"/><rect x="136" y="92" width="26" height="22" rx="5"/><rect x="174" y="92" width="14" height="22" rx="5"/>
      <rect x="22" y="124" width="26" height="22" rx="5" fill="#c9934a"/><rect x="60" y="124" width="26" height="22" rx="5"/><rect x="98" y="124" width="26" height="22" rx="5"/><rect x="136" y="124" width="26" height="22" rx="5"/><rect x="174" y="124" width="14" height="22" rx="5"/>
    </g>
  </g>
  <text x="300" y="676" text-anchor="middle" font-family="Jost, Helvetica, Arial, sans-serif" font-size="15" letter-spacing="2" font-weight="600" fill="#5a3a22">Diagnosis · Routine · Calendar · Tracking</text>
  <g transform="translate(300 716)">
    <rect x="-228" y="-20" width="456" height="40" rx="20" fill="url(#gold)"/>
    <text x="0" y="5" text-anchor="middle" font-family="Jost, Helvetica, Arial, sans-serif" font-size="13" letter-spacing="1.5" font-weight="700" fill="#fff">INTERACTIVE APP + 36-PAGE WORKBOOK</text>
  </g>
</svg>
