<svg xmlns="http://www.w3.org/2000/svg" viewBox="0 0 800 1000" width="800" height="1000">
<defs><linearGradient id="bgp" x1="0" y1="0" x2="1" y2="1"><stop offset="0" stop-color="#fdf6ee"/><stop offset="1" stop-color="#eadbc4"/></linearGradient>
<linearGradient id="gp" x1="0" y1="0" x2="1" y2="1"><stop offset="0" stop-color="#c9934a"/><stop offset="1" stop-color="#a06d28"/></linearGradient></defs>
<rect width="800" height="1000" fill="url(#bgp)"/><rect x="34" y="34" width="732" height="932" rx="34" fill="none" stroke="#c9934a" stroke-opacity="0.5" stroke-width="3" /><text x="400.0" y="108" text-anchor="middle" font-family="Helvetica,Arial,sans-serif" font-size="21" letter-spacing="4" fill="#c9934a">POROSITÉ · POROSITY</text><text x="400.0" y="176" text-anchor="middle" font-family="Georgia,'Times New Roman',serif" font-size="60" font-weight="600" fill="#2d1a0e">Porosité</text><text x="400.0" y="218" text-anchor="middle" font-family="Georgia,'Times New Roman',serif" font-size="30" font-style="italic" fill="#a06d28">Comment l'eau pénètre / How water enters</text><rect x="174" y="300" width="52" height="240" rx="26" fill="#f5e8d0" stroke="#a06d28" stroke-width="3"/><path d="M 174 320 q 26 8 52 0" fill="none" stroke="#a06d28" stroke-width="3" opacity="0.8"/><path d="M 174 358 q 26 8 52 0" fill="none" stroke="#a06d28" stroke-width="3" opacity="0.8"/><path d="M 174 396 q 26 8 52 0" fill="none" stroke="#a06d28" stroke-width="3" opacity="0.8"/><path d="M 174 434 q 26 8 52 0" fill="none" stroke="#a06d28" stroke-width="3" opacity="0.8"/><path d="M 174 472 q 26 8 52 0" fill="none" stroke="#a06d28" stroke-width="3" opacity="0.8"/><path d="M 174 510 q 26 8 52 0" fill="none" stroke="#a06d28" stroke-width="3" opacity="0.8"/><path d="M 200 250 q 22 30 0 50 q -22 -20 0 -50 z" fill="#e8b4a0"/><text x="200" y="595" text-anchor="middle" font-family="Georgia,'Times New Roman',serif" font-size="38" font-weight="600" fill="#a06d28">Faible</text><text x="200" y="624" text-anchor="middle" font-family="Georgia,'Times New Roman',serif" font-size="22" font-style="italic" fill="#c9934a">Low</text><text x="200" y="652" text-anchor="middle" font-family="Helvetica,Arial,sans-serif" font-size="16" fill="#5a3a22">l'eau perle / water beads</text><rect x="374" y="300" width="52" height="240" rx="26" fill="#f5e8d0" stroke="#a06d28" stroke-width="3"/><path d="M 374 320 q 26 16 52 0" fill="none" stroke="#a06d28" stroke-width="3" opacity="0.8"/><path d="M 374 358 q 26 16 52 0" fill="none" stroke="#a06d28" stroke-width="3" opacity="0.8"/><path d="M 374 396 q 26 16 52 0" fill="none" stroke="#a06d28" stroke-width="3" opacity="0.8"/><path d="M 374 434 q 26 16 52 0" fill="none" stroke="#a06d28" stroke-width="3" opacity="0.8"/><path d="M 374 472 q 26 16 52 0" fill="none" stroke="#a06d28" stroke-width="3" opacity="0.8"/><path d="M 374 510 q 26 16 52 0" fill="none" stroke="#a06d28" stroke-width="3" opacity="0.8"/><path d="M 400 270 q 18 26 0 44 q -18 -18 0 -44 z" fill="#e8b4a0"/><text x="400" y="595" text-anchor="middle" font-family="Georgia,'Times New Roman',serif" font-size="38" font-weight="600" fill="#a06d28">Moyenne</text><text x="400" y="624" text-anchor="middle" font-family="Georgia,'Times New Roman',serif" font-size="22" font-style="italic" fill="#c9934a">Medium</text><text x="400" y="652" text-anchor="middle" font-family="Helvetica,Arial,sans-serif" font-size="16" fill="#5a3a22">équilibrée / balanced</text><rect x="574" y="300" width="52" height="240" rx="26" fill="#f5e8d0" stroke="#a06d28" stroke-width="3"/><path d="M 574 320 q 26 28 52 0" fill="none" stroke="#a06d28" stroke-width="3" opacity="0.8"/><path d="M 574 358 q 26 28 52 0" fill="none" stroke="#a06d28" stroke-width="3" opacity="0.8"/><path d="M 574 396 q 26 28 52 0" fill="none" stroke="#a06d28" stroke-width="3" opacity="0.8"/><path d="M 574 434 q 26 28 52 0" fill="none" stroke="#a06d28" stroke-width="3" opacity="0.8"/><path d="M 574 472 q 26 28 52 0" fill="none" stroke="#a06d28" stroke-width="3" opacity="0.8"/><path d="M 574 510 q 26 28 52 0" fill="none" stroke="#a06d28" stroke-width="3" opacity="0.8"/><path d="M 598 360 q 14 20 0 34 q -14 -14 0 -34 z" fill="#e8b4a0"/><text x="600" y="595" text-anchor="middle" font-family="Georgia,'Times New Roman',serif" font-size="38" font-weight="600" fill="#a06d28">Élevée</text><text x="600" y="624" text-anchor="middle" font-family="Georgia,'Times New Roman',serif" font-size="22" font-style="italic" fill="#c9934a">High</text><text x="600" y="652" text-anchor="middle" font-family="Helvetica,Arial,sans-serif" font-size="16" fill="#5a3a22">l'eau s'échappe / water escapes</text><text x="400.0" y="934" text-anchor="middle" font-family="Georgia,'Times New Roman',serif" font-size="30" font-style="italic" fill="#a06d28" opacity="0.9">Schicgirl</text>
<text x="400.0" y="960" text-anchor="middle" font-family="Helvetica,Arial,sans-serif" font-size="15" letter-spacing="4" fill="#a06d28" opacity="0.55">NATURALS</text></svg>