<svg xmlns="http://www.w3.org/2000/svg" viewBox="0 0 800 1000" width="800" height="1000">
<defs><linearGradient id="bgt" x1="0" y1="0" x2="1" y2="1"><stop offset="0" stop-color="#fdf6ee"/><stop offset="1" stop-color="#f5e8d0"/></linearGradient>
<linearGradient id="gt" x1="0" y1="0" x2="1" y2="1"><stop offset="0" stop-color="#c9934a"/><stop offset="1" stop-color="#a06d28"/></linearGradient></defs>
<rect width="800" height="1000" fill="url(#bgt)"/><rect x="34" y="34" width="732" height="932" rx="34" fill="none" stroke="#c9934a" stroke-opacity="0.5" stroke-width="3" /><text x="400.0" y="108" text-anchor="middle" font-family="Helvetica,Arial,sans-serif" font-size="21" letter-spacing="4" fill="#c9934a">TON TYPE · YOUR TYPE</text><text x="400.0" y="176" text-anchor="middle" font-family="Georgia,'Times New Roman',serif" font-size="60" font-weight="600" fill="#2d1a0e">Type 4</text><text x="400.0" y="218" text-anchor="middle" font-family="Georgia,'Times New Roman',serif" font-size="30" font-style="italic" fill="#a06d28">Connais ta boucle / Know your curl</text><path d="M 200.0 300.0 L 212.2 304.6 L 222.3 309.2 L 228.5 313.8 L 229.8 318.3 L 226.0 322.9 L 217.6 327.5 L 206.2 332.1 L 193.8 336.7 L 182.4 341.2 L 174.0 345.8 L 170.2 350.4 L 171.5 355.0 L 177.7 359.6 L 187.8 364.2 L 200.0 368.8 L 212.2 373.3 L 222.3 377.9 L 228.5 382.5 L 229.8 387.1 L 226.0 391.7 L 217.6 396.2 L 206.2 400.8 L 193.8 405.4 L 182.4 410.0 L 174.0 414.6 L 170.2 419.2 L 171.5 423.8 L 177.7 428.3 L 187.8 432.9 L 200.0 437.5 L 212.2 442.1 L 222.3 446.7 L 228.5 451.2 L 229.8 455.8 L 226.0 460.4 L 217.6 465.0 L 206.2 469.6 L 193.8 474.2 L 182.4 478.8 L 174.0 483.3 L 170.2 487.9 L 171.5 492.5 L 177.7 497.1 L 187.8 501.7 L 200.0 506.2 L 212.2 510.8 L 222.3 515.4 L 228.5 520.0" fill="none" stroke="url(#gt)" stroke-width="9" stroke-linecap="round" stroke-linejoin="round"/><text x="200" y="585" text-anchor="middle" font-family="Georgia,'Times New Roman',serif" font-size="46" font-weight="600" fill="#a06d28">4A</text><text x="200" y="620" text-anchor="middle" font-family="Helvetica,Arial,sans-serif" font-size="18" fill="#5a3a22">douces, en S</text><text x="200" y="646" text-anchor="middle" font-family="Georgia,'Times New Roman',serif" font-size="17" font-style="italic" fill="#c9934a">soft S-curls</text><path d="M 400.0 300.0 L 434.0 322.0 L 366.0 344.0 L 434.0 366.0 L 366.0 388.0 L 434.0 410.0 L 366.0 432.0 L 434.0 454.0 L 366.0 476.0 L 434.0 498.0 L 366.0 520.0" fill="none" stroke="url(#gt)" stroke-width="9" stroke-linecap="round" stroke-linejoin="round"/><text x="400" y="585" text-anchor="middle" font-family="Georgia,'Times New Roman',serif" font-size="46" font-weight="600" fill="#a06d28">4B</text><text x="400" y="620" text-anchor="middle" font-family="Helvetica,Arial,sans-serif" font-size="18" fill="#5a3a22">en Z, angulaires</text><text x="400" y="646" text-anchor="middle" font-family="Georgia,'Times New Roman',serif" font-size="17" font-style="italic" fill="#c9934a">sharp Z-angles</text><path d="M 600.0 300.0 L 622.0 313.8 L 578.0 327.5 L 622.0 341.2 L 578.0 355.0 L 622.0 368.8 L 578.0 382.5 L 622.0 396.2 L 578.0 410.0 L 622.0 423.8 L 578.0 437.5 L 622.0 451.2 L 578.0 465.0 L 622.0 478.8 L 578.0 492.5 L 622.0 506.2 L 578.0 520.0" fill="none" stroke="url(#gt)" stroke-width="9" stroke-linecap="round" stroke-linejoin="round"/><text x="600" y="585" text-anchor="middle" font-family="Georgia,'Times New Roman',serif" font-size="46" font-weight="600" fill="#a06d28">4C</text><text x="600" y="620" text-anchor="middle" font-family="Helvetica,Arial,sans-serif" font-size="18" fill="#5a3a22">serrées, denses</text><text x="600" y="646" text-anchor="middle" font-family="Georgia,'Times New Roman',serif" font-size="17" font-style="italic" fill="#c9934a">tight &amp; dense</text><text x="400.0" y="934" text-anchor="middle" font-family="Georgia,'Times New Roman',serif" font-size="30" font-style="italic" fill="#a06d28" opacity="0.9">Schicgirl</text>
<text x="400.0" y="960" text-anchor="middle" font-family="Helvetica,Arial,sans-serif" font-size="15" letter-spacing="4" fill="#a06d28" opacity="0.55">NATURALS</text></svg>