<svg xmlns="http://www.w3.org/2000/svg" viewBox="0 0 800 1000" width="800" height="1000">
<defs><linearGradient id="bgw" x1="0" y1="0" x2="1" y2="1"><stop offset="0" stop-color="#eef4f3"/><stop offset="1" stop-color="#f5e8d0"/></linearGradient>
<linearGradient id="gw" x1="0" y1="0" x2="1" y2="1"><stop offset="0" stop-color="#c9934a"/><stop offset="1" stop-color="#a06d28"/></linearGradient></defs>
<rect width="800" height="1000" fill="url(#bgw)"/><rect x="34" y="34" width="732" height="932" rx="34" fill="none" stroke="#c9934a" stroke-opacity="0.5" stroke-width="3" /><text x="400.0" y="108" text-anchor="middle" font-family="Helvetica,Arial,sans-serif" font-size="21" letter-spacing="4" fill="#c9934a">FAIS LE TEST · DO THE TEST</text><text x="400.0" y="176" text-anchor="middle" font-family="Georgia,'Times New Roman',serif" font-size="60" font-weight="600" fill="#2d1a0e">Test du verre</text><text x="400.0" y="218" text-anchor="middle" font-family="Georgia,'Times New Roman',serif" font-size="30" font-style="italic" fill="#a06d28">The float test</text><path d="M 250.0 300 L 550.0 300 L 524.0 660 L 276.0 660 Z" fill="#dCe9ee" fill-opacity="0.5" stroke="#5a3a22" stroke-opacity="0.4" stroke-width="3"/><line x1="258.0" y1="370" x2="542.0" y2="370" stroke="#9cc3cc" stroke-width="3" opacity="0.7"/><path d="M 340.0 334 q 16 22 0 44 q -16 -22 0 -44" fill="none" stroke="#2d1a0e" stroke-width="6" stroke-linecap="round"/><path d="M 400.0 480 q 16 22 0 44 q -16 -22 0 -44" fill="none" stroke="#2d1a0e" stroke-width="6" stroke-linecap="round"/><path d="M 460.0 600 q 16 22 0 44 q -16 -22 0 -44" fill="none" stroke="#2d1a0e" stroke-width="6" stroke-linecap="round"/><text x="400.0" y="720" text-anchor="middle" font-family="Helvetica,Arial,sans-serif" font-size="20" fill="#5a3a22">Flotte = faible · Milieu = moyenne · Coule = élevée</text><text x="400.0" y="748" text-anchor="middle" font-family="Georgia,'Times New Roman',serif" font-size="18" font-style="italic" fill="#c9934a">Floats = low · Middle = medium · Sinks = high</text><text x="400.0" y="934" text-anchor="middle" font-family="Georgia,'Times New Roman',serif" font-size="30" font-style="italic" fill="#a06d28" opacity="0.9">Schicgirl</text>
<text x="400.0" y="960" text-anchor="middle" font-family="Helvetica,Arial,sans-serif" font-size="15" letter-spacing="4" fill="#a06d28" opacity="0.55">NATURALS</text></svg>